<?xml version="1.0" standalone="no"?>
<!DOCTYPE svg PUBLIC "-//W3C//DTD SVG 20010904//EN"
 "http://www.w3.org/TR/2001/REC-SVG-20010904/DTD/svg10.dtd">
<svg version="1.0" xmlns="http://www.w3.org/2000/svg"
 width="1024.000000pt" height="1024.000000pt" viewBox="0 0 1024.000000 1024.000000"
 preserveAspectRatio="xMidYMid meet">

<g transform="translate(0.000000,1024.000000) scale(0.100000,-0.100000)"
fill="#000000" stroke="none">
<path d="M4918 9263 c12 -2 32 -2 45 0 12 2 2 4 -23 4 -25 0 -35 -2 -22 -4z"/>
<path d="M5593 9263 c15 -2 39 -2 55 0 15 2 2 4 -28 4 -30 0 -43 -2 -27 -4z"/>
<path d="M4602 9105 c0 -16 2 -22 5 -12 2 9 2 23 0 30 -3 6 -5 -1 -5 -18z"/>
<path d="M4740 9111 c0 -5 5 -31 10 -58 23 -111 92 -732 100 -903 5 -102 14
-221 20 -265 6 -44 10 -100 8 -124 l-3 -43 -119 -39 c-315 -106 -554 -272
-747 -519 -118 -153 -156 -218 -202 -350 -40 -114 -47 -128 -84 -155 -48 -35
-63 -62 -63 -115 0 -44 -8 -47 -111 -52 l-56 -3 -6 -140 c-4 -77 -7 -188 -7
-247 l0 -108 48 -53 c26 -29 54 -62 62 -73 8 -12 34 -33 57 -47 23 -14 44 -30
47 -35 6 -10 -21 -36 -82 -76 -24 -17 -45 -40 -49 -55 -4 -14 -7 -116 -8 -226
l0 -200 60 -94 c34 -54 72 -101 88 -110 l29 -16 -6 -85 c-4 -47 -8 -103 -11
-125 -2 -22 -6 -75 -9 -119 -3 -43 -7 -80 -8 -81 -2 -1 -23 -5 -48 -8 l-45 -5
-55 116 c-30 63 -75 145 -99 181 -25 36 -68 104 -97 151 -28 47 -57 85 -64 85
-20 0 -26 17 -89 244 -41 146 -67 221 -82 237 l-21 23 16 128 c19 151 22 453
5 470 -9 9 4 36 49 107 80 125 113 191 150 306 48 151 48 147 7 167 -43 21
-44 28 -4 42 58 20 135 79 217 166 125 132 202 238 202 279 0 9 -14 23 -31 31
-16 9 -29 21 -27 27 2 6 31 19 64 28 98 27 159 67 256 170 97 102 148 169 148
194 0 19 -24 32 -73 40 -47 8 -79 24 -75 38 2 6 47 24 99 42 162 53 339 183
429 316 43 64 112 198 130 252 6 21 16 40 21 43 21 14 7 35 -30 45 -58 15
-384 16 -456 1 -106 -22 -211 -61 -261 -97 l-49 -34 -2 57 c-4 95 -25 253 -35
259 -5 3 -25 -9 -46 -28 -20 -18 -68 -55 -107 -82 -38 -27 -95 -70 -125 -96
-30 -26 -65 -55 -78 -66 -36 -30 -125 -143 -163 -206 -18 -32 -36 -54 -39 -50
-3 4 -12 25 -19 47 -8 22 -29 73 -48 114 l-33 74 -24 -36 c-14 -20 -67 -78
-118 -129 -187 -188 -268 -333 -314 -563 l-17 -88 -21 29 c-11 16 -61 71 -110
122 l-90 92 -22 -72 c-28 -94 -56 -170 -104 -282 -69 -161 -82 -228 -87 -435
l-5 -183 -67 64 c-71 69 -175 158 -185 158 -3 0 -6 -14 -6 -30 0 -35 -34 -252
-56 -360 -20 -99 -20 -278 1 -350 37 -128 56 -203 53 -212 -3 -8 -56 17 -145
68 -17 10 -34 16 -36 14 -3 -3 -8 -111 -12 -240 -6 -230 -6 -237 19 -333 28
-111 95 -255 157 -338 23 -31 38 -62 35 -68 -4 -6 -38 -11 -80 -11 -108 0
-166 -10 -166 -28 0 -25 89 -251 137 -346 85 -170 169 -267 337 -390 43 -32
74 -61 70 -66 -10 -8 -170 -60 -188 -60 -6 0 -17 -4 -24 -9 -11 -6 -1 -25 39
-82 247 -346 354 -455 480 -488 83 -22 82 -32 -3 -66 -55 -22 -49 -43 35 -119
56 -51 69 -68 58 -75 -8 -5 -66 -12 -130 -15 -220 -11 -429 -27 -457 -35 -27
-7 -29 -11 -30 -57 -2 -80 -26 -120 -90 -143 -29 -11 -82 -24 -116 -28 l-63
-8 -1 -50 c-2 -63 -8 -111 -49 -445 -19 -151 -44 -360 -55 -465 -12 -104 -37
-300 -56 -434 -19 -134 -34 -264 -32 -290 l3 -46 70 -17 c98 -26 111 -34 169
-113 61 -82 126 -174 126 -178 0 -1 -31 -1 -70 1 -56 3 -73 1 -87 -13 -16 -17
-17 -16 -24 1 -3 11 -5 21 -4 24 2 3 -15 4 -36 2 -25 -3 -46 1 -57 10 -9 8
-33 21 -52 28 -67 26 -106 76 -116 153 -7 50 -12 57 -24 37 -8 -12 -10 -11
-10 5 0 17 -2 17 -10 5 -8 -13 -10 -13 -10 2 0 9 -5 20 -12 24 -7 5 -9 2 -5
-9 3 -8 0 -18 -8 -21 -8 -3 -16 0 -18 7 -2 7 -7 -60 -11 -148 -4 -88 -11 -179
-16 -202 -4 -26 -4 -40 2 -37 5 3 8 -2 6 -11 -2 -14 6 -18 47 -20 86 -5 2302
-13 2260 -8 -22 2 -43 10 -47 16 -4 7 -48 13 -120 14 -62 2 -155 11 -206 20
-81 15 -95 15 -103 3 -9 -13 -10 -13 -6 0 3 12 21 14 100 11 67 -2 97 0 97 8
0 7 -23 11 -60 11 -53 0 -60 2 -60 20 0 11 -4 20 -10 20 -5 0 -10 9 -10 19 0
16 -9 21 -42 24 -24 2 71 4 209 4 139 0 254 2 256 4 2 2 12 80 23 172 l19 169
52 2 c29 1 54 -3 56 -8 1 -4 -1 -38 -5 -75 -9 -83 -10 -199 -2 -240 6 -29 9
-31 52 -31 59 0 50 -9 -11 -11 -26 -1 -47 -3 -48 -3 0 -1 -4 -36 -7 -79 l-8
-77 381 -3 c209 -1 503 -2 653 -2 151 1 266 -3 255 -7 -10 -4 99 -6 242 -3
143 3 497 8 787 11 l527 6 4 27 c3 17 5 11 6 -16 0 -24 4 -43 9 -43 4 0 7 17
6 37 -1 24 0 27 3 11 4 -27 6 -27 61 -23 44 3 1734 15 2275 15 49 0 86 3 84 8
-5 7 -9 48 -27 252 -5 63 -19 180 -30 260 -11 80 -25 186 -32 237 -6 50 -15
90 -19 87 -14 -8 -33 142 -33 256 0 75 -2 99 -6 70 -7 -43 -7 -44 -10 -10 -1
19 -2 40 -1 47 1 6 -3 14 -8 17 -5 3 -7 15 -4 26 4 14 0 20 -10 20 -8 0 -22 3
-31 6 -11 4 -19 -2 -25 -17 -7 -18 -10 -19 -10 -6 -1 9 -6 17 -12 17 -6 0 -8
9 -4 23 6 22 6 22 -8 -1 -21 -36 -24 -14 -97 660 -11 103 -20 203 -20 222 l0
34 -82 7 c-134 12 -149 27 -164 171 l-6 61 -152 7 c-83 3 -242 9 -353 12 -112
4 -203 9 -203 12 0 3 34 41 76 83 91 95 95 115 22 140 -62 20 -66 26 -26 34
107 23 263 154 416 350 140 180 152 196 152 210 0 9 -26 22 -65 34 -79 25
-165 61 -165 70 0 4 48 38 106 76 186 122 281 246 394 513 34 81 69 160 76
176 25 52 23 53 -105 59 -66 3 -126 9 -135 14 -13 7 -9 17 25 68 104 155 167
324 176 474 5 74 -14 441 -22 441 -1 0 -46 -23 -99 -51 -54 -28 -100 -49 -103
-45 -3 3 5 27 17 53 42 88 80 250 80 343 0 75 -48 578 -57 589 -1 2 -29 -20
-61 -50 -123 -114 -211 -189 -222 -189 -8 0 -10 8 -5 23 3 12 9 81 12 153 4
104 2 148 -12 210 -20 90 -67 218 -117 319 -20 39 -47 104 -62 145 -15 41 -29
82 -32 89 -3 10 -37 -18 -104 -87 -93 -96 -100 -101 -100 -74 0 59 -41 187
-90 280 -56 106 -78 137 -223 303 -54 61 -104 120 -110 130 -15 24 -26 24 -35
1 -10 -26 -106 -181 -112 -182 -3 0 -13 18 -24 39 -47 99 -182 228 -371 356
-55 37 -117 81 -137 97 l-37 29 -11 -38 c-6 -21 -18 -90 -27 -154 l-17 -116
-85 42 c-153 77 -212 90 -401 90 -165 0 -263 -8 -289 -24 -27 -17 87 -247 190
-386 92 -124 257 -236 404 -272 62 -15 64 -17 49 -34 -8 -9 -41 -27 -72 -40
-31 -12 -59 -24 -61 -25 -8 -7 207 -238 262 -282 79 -62 80 -62 156 -87 36
-12 66 -26 68 -31 2 -6 -15 -19 -37 -29 -22 -10 -40 -22 -40 -27 0 -22 46 -92
125 -190 87 -108 207 -212 281 -243 42 -17 43 -30 4 -50 -23 -12 -30 -22 -30
-44 0 -82 122 -350 209 -458 46 -57 49 -64 40 -95 -5 -18 -9 -116 -9 -218 0
-145 5 -206 20 -280 11 -52 20 -101 20 -109 0 -13 -17 -12 -76 5 -20 5 -22 1
-29 -58 -25 -237 -68 -408 -107 -429 -28 -15 -180 -255 -292 -461 -34 -63 -39
-68 -71 -68 -19 0 -36 3 -38 8 -3 4 -8 102 -12 217 l-6 210 35 13 c23 9 51 33
79 70 73 95 71 86 75 320 2 116 2 222 -1 235 -6 23 -51 51 -99 63 -48 11 -49
71 -3 92 14 6 39 34 56 61 16 28 45 59 63 71 l33 20 5 252 c4 180 2 255 -6
260 -6 4 -41 8 -78 8 l-68 0 0 59 0 59 -65 41 c-36 22 -67 46 -69 53 -3 7 -16
56 -31 108 -64 234 -309 533 -556 682 -171 102 -329 174 -459 209 l-65 17 0
43 c1 24 6 107 13 184 7 77 17 219 22 315 7 147 65 621 99 813 l8 47 -558 0
c-335 0 -559 -4 -559 -9z m858 -129 l93 -2 -7 -37 c-10 -56 -35 -114 -46 -107
-19 12 -53 -6 -65 -33 -14 -32 -29 -136 -39 -271 -3 -50 -10 -95 -15 -98 -5
-3 -7 -9 -4 -14 3 -4 -2 -21 -11 -36 -15 -29 -15 -28 -10 26 11 108 19 348 12
374 -4 15 -12 26 -19 25 -20 -3 -51 13 -72 38 l-20 24 0 -68 c0 -37 -1 -165
-3 -284 l-2 -216 -102 -11 c-79 -8 -104 -8 -110 1 -4 7 -8 62 -8 122 0 133 -8
185 -27 185 -7 0 -17 -15 -20 -32 l-7 -33 -8 35 c-4 19 -4 4 -1 -35 4 -38 7
-107 7 -152 0 -71 -3 -85 -19 -98 -27 -20 -72 -19 -84 3 -12 23 -34 161 -46
297 -4 39 -20 142 -35 230 -15 88 -24 162 -20 165 8 5 487 6 688 2z m-1829
-569 c-1 -183 -44 -321 -126 -413 -45 -51 -63 -56 -63 -18 0 13 -5 18 -14 15
-21 -8 -26 2 -16 29 14 35 5 30 -19 -12 -13 -21 -19 -45 -16 -58 2 -11 2 -15
-1 -8 -8 17 -24 5 -24 -19 0 -11 -4 -17 -10 -14 -5 3 -7 0 -4 -9 5 -13 -22
-62 -65 -116 -19 -23 -20 -24 -27 -6 -4 11 -2 76 4 145 11 113 16 134 51 206
46 97 120 187 205 249 35 25 71 55 81 66 33 36 45 25 44 -37z m3137 6 c35 -28
61 -55 58 -60 -3 -5 -10 -7 -15 -4 -18 12 -8 -12 61 -150 38 -77 90 -192 115
-255 25 -63 48 -120 51 -125 2 -6 -54 46 -124 115 -118 114 -133 133 -173 215
-41 86 -43 94 -47 202 -3 62 -1 113 3 113 4 0 36 -23 71 -51z m-2446 -46 c0
-23 -53 -115 -77 -133 -10 -8 -15 -10 -11 -6 4 5 3 15 -3 23 -9 10 -8 17 1 28
41 50 -46 9 -250 -115 -286 -174 -332 -201 -336 -197 -3 3 8 33 24 68 97 212
319 340 605 348 39 1 47 -2 47 -16z m1940 -13 c141 -40 288 -144 378 -269 29
-41 51 -75 49 -77 -4 -5 -182 68 -242 98 -27 15 -93 51 -144 82 -52 31 -102
56 -110 56 -14 -1 -13 -3 1 -14 17 -12 17 -14 -3 -37 -14 -16 -18 -31 -14 -49
4 -21 -3 -16 -45 28 -50 54 -130 177 -130 202 0 19 164 6 260 -20z m-3201
-357 c23 -113 26 -165 11 -243 -12 -63 -56 -165 -79 -182 -13 -10 -14 -10 -3
2 16 19 15 30 -3 30 -9 0 -12 6 -8 17 5 13 1 15 -23 10 -44 -9 -56 2 -44 43 5
18 8 36 6 38 -3 2 -9 -11 -14 -30 -10 -34 -80 -216 -89 -232 -3 -4 -9 -3 -13
4 -4 7 -16 -7 -30 -36 -17 -37 -21 -59 -16 -94 10 -81 -12 -19 -30 81 -19 111
-15 195 18 324 30 116 89 221 193 338 l79 90 12 -29 c7 -16 21 -75 33 -131z
m4251 150 c0 -5 18 -32 40 -61 22 -29 38 -57 35 -63 -4 -5 -10 -7 -15 -4 -4 3
-6 -3 -4 -12 2 -10 21 -99 43 -198 22 -99 44 -211 50 -250 6 -38 17 -93 24
-122 8 -29 10 -50 5 -47 -21 13 -117 122 -155 176 -78 111 -101 227 -78 384
20 131 36 204 47 204 4 0 8 -3 8 -7z m-1832 -43 c1 -14 -1 -30 -6 -37 -4 -7
-51 -16 -107 -21 l-100 -9 90 -3 c50 -1 79 -5 65 -7 -42 -8 -50 -25 -10 -21
24 2 37 9 42 23 5 17 6 16 7 -7 l1 -26 -307 -4 c-170 -2 -309 -3 -310 -3 -1 1
-5 31 -9 67 l-7 67 39 3 c22 2 167 3 324 3 l285 0 3 -25z m-528 -296 c0 -19 5
-34 10 -34 6 0 8 -11 4 -25 -5 -20 -2 -25 13 -25 10 0 23 4 29 10 6 6 32 7 69
2 l60 -8 -85 -8 c-47 -4 -93 -10 -102 -12 -16 -5 -18 3 -18 71 0 48 4 74 10
70 6 -3 10 -22 10 -41z m429 4 c-2 -35 -3 -37 -6 -13 -3 17 -9 36 -15 43 -8 9
-6 12 6 12 12 0 16 -9 15 -42z m-338 -38 c13 -8 25 -7 39 0 16 9 20 8 20 -5 0
-17 -7 -18 -74 -9 -25 4 -46 11 -46 15 0 12 37 11 61 -1z m-46 -30 c3 -6 -1
-7 -9 -4 -18 7 -21 14 -7 14 6 0 13 -4 16 -10z m1940 -44 c98 -34 130 -54 217
-129 70 -60 85 -84 46 -71 -103 33 -462 121 -560 138 -33 6 -37 5 -31 -11 4
-10 -12 1 -36 25 -71 70 -51 81 149 78 119 -2 144 -5 215 -30z m-3222 17 c72
-6 93 -22 66 -49 -8 -7 -59 -23 -114 -34 -55 -11 -123 -29 -152 -39 -28 -11
-119 -38 -202 -60 -83 -23 -170 -50 -193 -61 -49 -23 -48 -23 -48 -10 0 41
150 167 238 200 146 55 246 68 405 53z m1562 -122 c110 -13 272 -40 318 -53
23 -7 37 -17 37 -27 0 -13 -2 -14 -9 -2 -12 19 -25 -67 -17 -112 8 -44 82
-107 106 -92 6 4 10 1 10 -5 0 -5 15 -20 33 -31 17 -12 23 -18 12 -14 -11 4
-83 22 -160 40 -126 30 -189 40 -378 60 l-58 7 3 -54 3 -53 85 -12 c78 -12
194 -34 280 -53 19 -5 73 -19 120 -33 47 -14 129 -38 183 -53 53 -15 97 -30
97 -34 0 -8 -59 8 -244 64 -139 43 -380 94 -481 102 -120 10 -446 -66 -840
-194 -185 -61 -307 -113 -449 -192 -60 -33 -111 -59 -113 -56 -6 6 43 102 80
156 51 75 171 212 250 286 171 160 413 286 627 328 104 20 354 45 395 40 17
-3 66 -8 110 -13z m-2778 -133 c120 -240 134 -397 51 -563 -14 -27 -33 -75
-44 -105 l-18 -55 -12 115 c-17 162 -44 269 -44 175 0 -21 -3 -36 -6 -32 -4 3
-12 1 -19 -6 -6 -7 -26 -23 -43 -36 -18 -13 -32 -30 -32 -37 0 -7 -6 -11 -14
-8 -10 4 -12 -2 -10 -23 4 -23 1 -20 -13 12 -12 30 -16 69 -16 150 1 140 30
276 88 405 23 52 46 105 49 118 4 12 11 20 15 18 4 -3 35 -60 68 -128z m397
118 c-3 -8 -1 -17 5 -21 6 -3 11 -15 11 -26 0 -24 35 -26 49 -1 6 9 11 14 11
9 0 -14 -47 -82 -79 -111 -25 -24 -31 -26 -32 -13 -1 9 -2 23 -3 30 -2 14 22
125 30 138 8 14 14 10 8 -5z m4986 -36 c14 -34 9 -148 -17 -435 -8 -93 -18
-210 -22 -259 l-6 -90 -55 108 -55 108 0 136 c0 115 4 149 23 212 27 84 101
250 112 250 4 0 13 -13 20 -30z m-2120 -58 c174 -69 351 -193 505 -354 95 -99
156 -190 203 -302 12 -29 12 -30 -4 -11 -8 11 -33 54 -54 96 -72 142 -219 296
-398 418 -78 53 -298 161 -327 161 -13 0 -25 6 -28 14 -6 16 25 9 103 -22z
m1305 -238 c165 -12 331 -71 423 -150 41 -35 156 -193 147 -202 -2 -2 -100 42
-217 98 -227 108 -444 191 -435 165 11 -26 -17 -5 -50 39 -44 57 -43 69 5 62
20 -3 78 -8 127 -12z m-3686 -25 c-19 -24 -56 -43 -169 -88 -141 -56 -427
-200 -516 -261 -24 -16 -44 -27 -44 -24 0 17 57 111 100 165 128 159 306 234
564 238 l89 1 -24 -31z m2671 -118 c19 -17 31 -30 25 -30 -5 0 -30 18 -55 41
-50 45 -25 36 30 -11z m-810 4 c276 -48 590 -133 817 -221 212 -82 527 -248
601 -317 15 -14 22 -32 22 -59 0 -46 -11 -48 -71 -10 -24 16 -96 56 -159 89
-325 172 -662 287 -1060 362 -228 43 -221 43 -321 25 -231 -39 -480 -101 -674
-167 -220 -74 -513 -204 -651 -288 -45 -27 -86 -49 -92 -49 -5 0 -12 21 -14
46 -4 54 -5 53 121 128 333 202 819 377 1263 456 131 23 118 22 218 5z m743
-42 c-7 -2 -19 -2 -25 0 -7 3 -2 5 12 5 14 0 19 -2 13 -5z m-718 -198 c28 -3
61 -8 75 -11 l25 -4 -3 -189 c-3 -175 -1 -190 15 -195 25 -7 210 -36 225 -35
7 1 2 4 -12 8 -24 6 -25 11 -28 86 -2 85 -16 127 -38 118 -8 -3 -14 1 -14 11
0 9 -7 16 -15 16 -8 0 -15 2 -15 5 0 12 24 55 32 55 4 0 8 7 8 16 0 8 6 22 14
30 13 12 15 12 19 -4 4 -13 5 -11 6 6 0 12 4 22 8 22 18 0 179 -56 186 -65 4
-5 6 -83 5 -172 l-3 -161 150 -37 c229 -57 433 -134 620 -233 60 -32 72 -42
83 -76 9 -27 9 -42 2 -51 -8 -10 -4 -14 17 -20 16 -3 36 -14 45 -22 10 -9 28
-13 43 -11 21 4 25 1 25 -18 0 -29 -16 -30 -55 -3 -25 17 -104 59 -215 114
-200 101 -585 219 -795 245 -50 6 -128 19 -175 30 -112 24 -240 40 -324 40
-132 0 -582 -75 -839 -140 -103 -26 -190 -44 -192 -39 -3 4 -15 5 -28 2 -12
-2 -4 5 18 16 36 19 37 21 10 15 -34 -6 -127 -45 -122 -50 2 -2 18 0 35 5 20
6 32 6 32 0 0 -5 -9 -9 -20 -9 -11 0 -23 -6 -26 -14 -3 -8 -33 -26 -67 -41
-34 -15 -92 -42 -129 -61 -37 -19 -75 -34 -85 -34 -10 0 -31 -7 -47 -15 -41
-22 -45 -18 -11 10 28 23 28 25 8 25 -12 0 -25 -4 -28 -10 -3 -5 -10 -10 -15
-10 -18 0 22 56 59 84 35 25 38 32 30 53 -5 13 -9 80 -9 148 l0 124 33 25 c69
53 439 213 657 284 133 44 461 120 588 136 103 13 128 14 237 1z m185 -35 l25
-8 -25 0 c-14 0 -36 4 -50 8 l-25 8 25 0 c14 0 36 -4 50 -8z m2811 -202 c-34
-83 -61 -154 -61 -159 0 -4 -31 -81 -69 -171 -38 -90 -77 -187 -87 -215 -10
-29 -21 -53 -25 -53 -6 0 -23 92 -34 186 -13 106 39 277 124 406 26 40 83 106
127 147 l79 74 3 -32 c2 -21 -17 -82 -57 -183z m-6185 124 c102 -97 162 -175
208 -272 41 -84 41 -86 41 -200 0 -119 -13 -260 -24 -260 -4 0 -30 65 -60 145
-58 158 -128 311 -138 302 -3 -4 -1 -13 5 -20 9 -10 1 -23 -33 -57 -25 -24
-45 -49 -45 -56 0 -7 -6 -14 -14 -17 -8 -3 -12 -16 -10 -34 2 -15 -7 4 -22 42
-20 55 -25 89 -26 161 -1 85 30 334 42 334 3 0 37 -30 76 -68z m3454 58 c11
-8 7 -9 -15 -4 -37 8 -45 14 -19 14 10 0 26 -5 34 -10z m1810 -125 c145 -34
289 -112 381 -206 77 -79 139 -226 138 -329 l0 -45 -42 50 c-117 139 -327 331
-429 394 l-38 23 0 -34 c0 -18 4 -49 10 -67 16 -58 -6 -21 -46 74 -38 93 -57
155 -45 155 3 0 35 -7 71 -15z m-4300 -5 c0 -27 -32 -68 -62 -81 -39 -16 -206
-148 -273 -215 -42 -43 -145 -166 -227 -272 -15 -19 -30 -37 -34 -41 -3 -3 -3
23 1 59 22 217 135 389 314 479 46 23 109 50 140 61 61 21 141 26 141 10z
m4818 -135 c0 -25 -24 28 -33 71 -4 24 -2 22 14 -11 11 -22 19 -49 19 -60z
m-4274 -202 l38 -6 -4 -116 c-6 -127 -12 -151 -37 -151 -9 0 -22 -5 -28 -11
-6 -6 -26 -9 -44 -7 l-34 3 -3 139 c-3 167 -2 168 112 149z m3252 -45 c-4 -23
-10 -45 -14 -48 -4 -3 -14 -18 -22 -35 -12 -22 -25 -31 -52 -36 -43 -7 -48 2
-48 93 0 63 0 63 99 67 l44 1 -7 -42z m-1665 -153 c1 -14 3 -29 4 -35 1 -5 3
-14 4 -20 0 -6 39 -10 94 -10 155 0 482 -37 567 -65 41 -13 92 -27 113 -31 20
-3 40 -11 43 -16 4 -6 -2 -7 -17 -2 -42 13 -201 8 -289 -11 -72 -14 -170 -45
-305 -94 l-31 -11 3 -358 c2 -196 4 -433 6 -527 1 -93 1 -160 -1 -147 -4 28
-8 28 -108 -5 -75 -25 -83 -30 -88 -57 -4 -16 -2 -34 4 -40 10 -10 15 3 11 33
-2 8 2 10 11 5 7 -5 22 -7 33 -6 l20 3 -20 -12 c-11 -7 -29 -23 -40 -36 -20
-25 -20 -25 -45 -5 -14 11 -62 38 -108 61 -61 31 -85 49 -93 68 -7 18 -8 183
-3 493 l7 466 -21 1 c-11 1 -65 15 -119 32 -265 80 -384 75 -621 -25 -131 -55
-155 -57 -114 -8 19 23 169 87 183 78 5 -3 9 -1 9 4 0 5 10 14 23 21 48 25
-36 0 -150 -45 -63 -24 -117 -44 -122 -44 -10 0 -20 -77 -22 -175 -2 -68 -1
-70 22 -67 43 5 69 -7 69 -31 0 -85 78 -178 184 -221 73 -29 238 -61 369 -72
99 -8 109 -19 57 -69 -16 -16 -30 -34 -30 -39 0 -6 4 -5 9 3 5 8 16 11 25 8
15 -6 16 -76 14 -830 l-3 -824 -80 56 c-283 197 -491 369 -686 568 -162 165
-242 262 -233 281 4 9 10 105 15 212 4 107 12 283 18 390 6 107 11 344 11 526
l0 332 43 -5 c33 -4 60 2 108 22 155 65 281 110 384 137 93 24 101 28 55 24
l-55 -5 60 29 c62 31 103 37 135 20 20 -11 292 36 298 52 2 4 16 8 31 8 15 0
31 3 35 8 4 4 73 7 154 7 107 0 146 3 149 13 8 21 23 13 24 -13z m-2325 -112
c-3 -21 -6 -53 -6 -70 0 -34 -16 -46 -22 -16 -4 22 -106 -132 -179 -272 -66
-125 -149 -323 -159 -375 l-6 -35 -18 50 c-26 73 -32 215 -13 292 29 113 81
199 176 293 79 78 200 170 224 170 6 0 7 -16 3 -37z m4731 -35 c108 -75 195
-173 249 -282 57 -115 64 -171 39 -305 -17 -89 -35 -139 -35 -97 0 71 -215
496 -243 479 -5 -3 -3 -9 4 -14 13 -8 5 -13 -15 -10 -18 4 -66 -53 -67 -78 0
-22 -3 -20 -16 14 -11 28 -17 89 -21 199 -5 184 -14 176 105 94z m903 -1 c0
-12 -25 -58 -56 -102 -30 -44 -71 -109 -91 -145 -49 -88 -316 -492 -336 -509
-15 -12 -17 -11 -17 11 0 58 22 198 40 253 60 179 209 364 392 481 62 40 68
41 68 11z m-6550 -46 c91 -54 231 -191 283 -278 61 -101 80 -169 101 -378 l5
-50 -25 30 c-13 17 -73 101 -132 188 -203 299 -252 371 -261 380 -5 5 -8 -4
-8 -20 1 -15 -7 -40 -17 -55 -11 -18 -18 -47 -18 -80 l-1 -53 -13 40 c-19 59
-15 332 5 323 3 -2 40 -23 81 -47z m6067 -98 c-3 -76 -11 -151 -16 -168 -8
-22 -9 1 -5 90 6 137 13 215 21 215 3 0 3 -62 0 -137z m-1429 -455 c2 -260 7
-597 11 -748 5 -215 4 -281 -6 -302 -23 -47 -245 -299 -375 -423 -99 -95 -166
-147 -324 -254 -109 -73 -213 -147 -231 -163 -29 -28 -31 -29 -37 -10 -4 11
-8 404 -10 874 l-2 855 115 12 c214 22 349 60 403 115 37 38 70 108 76 163 l5
45 71 -7 c39 -3 74 -10 78 -13 13 -12 -17 -57 -39 -60 -15 -2 -24 -13 -29 -35
-9 -42 -41 -106 -67 -134 -11 -13 -16 -23 -11 -23 11 0 64 74 64 88 0 5 6 12
13 15 22 8 11 -59 -17 -107 -36 -62 -107 -121 -174 -145 -50 -19 -52 -20 -17
-15 87 14 79 26 87 -136 10 -202 14 -238 16 -142 l2 82 80 0 80 0 0 -69 c0
-38 3 -83 6 -101 l7 -32 -94 2 c-52 1 -142 1 -200 1 l-107 -1 2 -112 1 -111
-65 2 c-93 3 -104 5 -112 16 -4 6 -8 52 -8 102 l0 93 28 6 c79 18 108 27 114
38 5 7 8 5 8 -6 0 -10 7 -18 15 -18 13 0 15 27 15 181 0 155 -2 180 -15 175
-8 -3 -51 -11 -95 -18 l-80 -12 0 -673 c0 -514 3 -673 12 -673 10 0 60 27 174
96 85 51 306 219 364 277 62 61 165 174 224 244 l28 33 -2 750 c0 412 3 750 7
750 4 0 9 -213 11 -472z m-4219 360 c-1 -62 -4 -85 -9 -68 -16 49 -11 160 7
160 2 0 3 -42 2 -92z m3919 40 c83 -36 93 -54 27 -45 -69 10 -132 47 -119 69
8 12 13 11 92 -24z m-2634 -249 c0 -24 -4 -88 -8 -142 -8 -96 -8 -98 -27 -81
-26 23 -26 1 0 -49 17 -33 17 -36 1 -27 -41 22 -54 61 -58 172 -5 137 -1 155
41 167 46 13 52 9 51 -40z m3144 26 c1 -1 -1 -49 -5 -106 -3 -57 -9 -97 -11
-89 -14 44 -39 24 -43 -35 -3 -59 -17 56 -18 152 l-1 92 38 -6 c20 -3 38 -7
40 -8z m-3910 -142 c10 -19 36 -122 48 -188 7 -37 6 -39 -10 -22 -10 9 -22 17
-27 17 -5 0 -9 12 -10 28 -1 42 -87 -291 -104 -403 -8 -55 -16 -143 -17 -196
-2 -54 -5 -95 -9 -94 -15 10 -89 177 -98 223 -16 75 -14 175 5 251 18 75 85
213 150 310 24 36 44 71 44 78 0 19 18 16 28 -4z m4614 -75 c134 -176 177
-278 185 -429 7 -116 -9 -178 -65 -262 l-39 -58 -7 98 c-8 114 -32 230 -76
366 -28 89 -33 97 -45 80 -8 -10 -15 -21 -15 -25 0 -4 -13 -21 -30 -36 -20
-20 -35 -48 -45 -88 l-15 -59 5 100 c4 63 17 144 37 220 16 66 33 130 35 143
3 12 9 22 13 22 4 0 32 -33 62 -72z m-744 -110 c-19 -28 -40 -36 -31 -11 7 19
22 33 37 33 5 0 2 -10 -6 -22z m-4318 -109 c0 -9 18 -69 41 -133 22 -65 38
-120 36 -123 -16 -16 -84 186 -100 297 l-6 35 14 -30 c8 -16 14 -37 15 -46z
m5470 -60 c-12 -35 -30 -79 -40 -98 -17 -31 -19 -33 -20 -13 0 13 10 47 21 75
12 29 29 70 38 91 24 59 25 17 1 -55z m-5913 -9 c166 -22 267 -75 408 -214 78
-78 98 -105 138 -186 74 -152 73 -153 -24 -85 -46 32 -147 108 -224 170 -127
101 -196 150 -322 229 -46 28 -57 26 -20 -5 12 -10 16 -18 10 -19 -8 0 -11
-11 -7 -32 4 -31 3 -30 -17 12 -13 25 -33 66 -46 92 -28 58 -28 60 0 53 12 -2
59 -9 104 -15z m6483 5 c0 -31 -20 -54 -72 -82 -110 -61 -309 -194 -463 -309
-173 -129 -215 -157 -222 -151 -6 6 60 137 102 202 46 72 139 170 211 221 84
60 169 93 289 113 141 24 155 24 155 6z m-2530 -164 c0 -16 -7 -34 -15 -41
-11 -9 -15 -9 -15 -1 0 7 -5 9 -11 6 -6 -4 -13 2 -16 14 -4 15 -13 21 -32 21
-14 0 -37 4 -51 8 -20 5 -12 8 35 13 112 11 105 12 105 -20z m-2815 -33 c25
-36 110 -181 118 -202 6 -16 5 -17 -8 -6 -11 9 -19 10 -27 2 -6 -6 -17 -8 -24
-5 -11 4 -14 -7 -14 -48 1 -145 38 -546 57 -614 7 -27 -94 85 -135 149 -18 28
-44 87 -58 131 -23 72 -25 90 -20 180 3 55 15 138 26 185 12 47 29 122 38 167
9 46 20 83 24 83 4 0 14 -10 23 -22z m4079 6 c3 -9 6 -28 6 -43 0 -16 5 -42
11 -60 13 -37 4 -56 -9 -20 -8 21 -10 17 -22 -29 -7 -29 -10 -55 -7 -58 3 -3
8 14 12 37 10 61 24 28 18 -43 -3 -32 -9 -58 -14 -58 -5 0 -9 -16 -9 -35 0
-19 -4 -43 -10 -53 -5 -9 -16 -60 -24 -112 -7 -52 -14 -81 -15 -63 l-1 31 -50
-18 c-27 -10 -57 -25 -65 -34 -9 -9 -21 -16 -26 -16 -5 0 -9 -10 -10 -22 -1
-14 -5 -7 -11 17 -25 103 22 285 109 421 32 49 67 109 77 132 20 45 30 51 40
26z m-1044 -464 l0 -100 -195 0 c-186 0 -195 1 -195 19 0 45 30 70 44 36 3
-10 14 -13 33 -9 17 3 36 -1 48 -10 l20 -16 -20 6 c-16 5 -17 4 -5 -5 19 -14
53 -14 45 -1 -3 6 -2 10 4 10 5 0 12 -6 14 -12 3 -7 6 28 6 78 1 50 4 94 8 97
3 4 48 7 100 7 l93 0 0 -100z m1480 56 c0 -3 -16 -31 -35 -63 -38 -64 -225
-265 -225 -243 0 8 13 29 28 45 35 38 126 147 177 214 34 44 55 62 55 47z
m-4778 -194 c39 -45 68 -85 66 -88 -8 -7 -150 148 -172 187 l-19 34 27 -25
c15 -14 60 -62 98 -108z m3969 -15 c-7 -7 -8 -2 -5 14 9 46 -45 -65 -72 -146
-33 -101 -178 -398 -238 -489 -25 -38 -46 -75 -46 -82 0 -8 -2 -14 -4 -14 -2
0 -12 -3 -21 -6 -14 -6 -15 5 -10 112 13 257 45 324 314 654 l86 104 3 -68 c2
-38 -1 -73 -7 -79z m-3266 41 c150 -174 227 -276 255 -336 31 -63 38 -89 19
-62 -9 12 -10 11 -6 -8 3 -12 2 -20 -3 -17 -22 13 -64 -111 -53 -156 11 -43
-6 -15 -86 147 -43 87 -86 168 -94 179 l-16 20 -15 -20 c-8 -11 -16 -29 -16
-39 0 -11 -3 -16 -7 -13 -11 12 -33 -44 -27 -72 3 -14 7 -37 10 -51 l4 -25
-14 25 c-18 32 -36 144 -39 240 -3 120 2 270 11 270 4 0 39 -37 77 -82z m-955
-77 c100 -27 200 -78 285 -146 69 -56 190 -183 181 -192 -2 -2 -17 2 -33 10
-16 9 -67 28 -113 42 -47 15 -168 60 -270 100 -102 41 -222 85 -267 98 l-82
25 10 -25 c14 -36 11 -38 -12 -9 -11 14 -17 30 -14 36 4 6 3 9 -2 8 -5 -2 -24
14 -41 34 l-33 37 38 4 c82 10 278 -2 353 -22z m5388 19 c52 -5 97 -11 100
-15 17 -17 -53 -50 -233 -110 -110 -37 -245 -85 -300 -108 -112 -45 -316 -109
-324 -101 -3 2 33 42 80 88 135 133 263 207 415 239 82 18 137 20 262 7z
m-1883 -160 c17 -4 26 -9 20 -10 -16 -3 -89 1 -107 6 -13 4 -22 -4 -32 -28
l-14 -33 -1 38 -1 37 53 -1 c28 -1 66 -5 82 -9z m1035 -199 c-32 -46 -132
-130 -162 -136 -16 -4 -28 -11 -28 -16 0 -5 -7 -9 -16 -9 -14 0 -15 2 -3 17
19 22 216 173 226 173 3 0 -5 -13 -17 -29z m-3819 -107 c55 -37 99 -71 99 -75
0 -9 -35 2 -72 22 -23 13 -141 119 -131 119 3 0 50 -30 104 -66z m-94 -145
c122 -17 416 -129 452 -173 12 -14 9 -16 -20 -16 -19 0 -52 5 -74 10 -22 5
-96 14 -165 19 -176 15 -428 46 -500 61 -25 5 -69 11 -98 14 -42 3 -60 10 -83
32 -46 44 -39 53 49 57 183 8 366 6 439 -4z m4351 -4 c3 -3 -5 -16 -18 -29
-29 -32 -149 -61 -360 -87 -85 -11 -195 -29 -245 -41 -105 -23 -305 -37 -305
-20 0 15 183 117 255 142 123 42 196 50 439 45 125 -2 231 -6 234 -10z m-4733
-335 c-7 -18 -28 -241 -23 -244 1 -1 46 1 98 4 151 8 138 23 123 -143 -12
-145 -22 -202 -30 -180 -3 9 -56 12 -194 12 -105 0 -194 3 -200 6 -5 4 -7 16
-4 28 3 12 11 61 19 110 l13 87 -208 0 -209 0 0 -32 c0 -18 -11 -132 -24 -253
-13 -121 -26 -263 -29 -315 -2 -52 -2 -80 0 -62 2 17 8 32 13 32 5 0 7 -12 5
-27 -3 -16 -10 -66 -15 -112 -13 -108 -21 -117 -15 -15 l4 79 -14 -90 c-7 -49
-19 -137 -25 -195 -7 -58 -16 -115 -20 -127 -5 -11 -6 -24 -3 -27 4 -3 97 -6
207 -6 l201 0 17 78 c10 42 21 103 24 134 l7 57 196 3 c108 2 197 3 199 2 1
-1 -3 -99 -10 -219 -9 -156 -17 -220 -25 -223 -7 -2 -13 3 -13 12 0 14 -18 16
-124 16 l-124 0 -6 -87 c-12 -159 -32 -233 -59 -216 -6 4 -164 8 -352 9 -189
1 -339 5 -338 10 1 5 8 43 17 84 8 41 18 102 21 135 l7 60 -114 -5 c-62 -3
-119 -9 -126 -14 -19 -11 -15 61 12 273 24 183 60 471 91 726 9 72 23 190 32
263 l16 133 124 -3 c95 -2 124 0 128 10 3 8 5 46 5 86 0 40 3 93 6 117 l6 44
359 0 c314 0 358 -2 354 -15z m1275 -19 c0 -64 -21 -195 -33 -210 -10 -12 9
-13 132 -8 l144 7 -7 -68 c-3 -37 -11 -296 -17 -577 -6 -280 -14 -626 -17
-768 l-7 -257 -197 -2 c-108 -2 -199 0 -202 2 -4 5 6 190 20 363 l7 87 -205 0
c-205 0 -206 0 -212 -22 -3 -13 -11 -99 -17 -193 -6 -93 -13 -188 -17 -210
l-7 -39 -55 4 c-74 7 -291 6 -310 0 -22 -7 -24 58 -6 192 9 62 25 248 36 413
24 351 35 486 50 610 34 288 40 345 40 397 l0 58 150 0 c83 0 150 3 150 8 0 4
7 61 15 127 8 65 15 121 15 122 0 2 124 3 275 3 l275 0 0 -39z m1406 -97 l-8
-132 126 5 126 6 0 -134 c0 -74 3 -144 6 -156 l6 -23 -206 0 -206 0 0 120 0
120 -200 -3 -200 -2 0 -195 c0 -107 -3 -206 -7 -219 -5 -21 -3 -23 12 -17 10
3 122 9 249 12 127 2 245 7 263 9 l32 4 3 -91 3 -91 123 2 122 2 0 -118 c0
-125 16 -459 26 -555 l6 -58 -44 0 c-46 0 -145 13 -191 25 l-29 8 7 -156 8
-156 -376 0 c-207 -1 -383 -4 -392 -7 -14 -6 -15 9 -9 155 4 88 4 161 0 161
-4 0 -17 -5 -29 -12 -12 -7 -64 -12 -116 -13 l-94 -1 7 80 c3 45 6 120 6 167
l0 86 153 7 c84 3 174 3 200 0 l47 -7 0 -62 c0 -34 3 -75 6 -91 l5 -29 202 3
c111 2 203 5 204 6 2 2 0 72 -3 157 l-7 154 -41 3 c-23 2 -117 3 -211 3 -93
-1 -203 1 -243 5 l-72 6 4 128 4 127 -51 6 c-29 3 -83 2 -120 -2 -38 -4 -70
-5 -71 -2 -2 3 0 112 5 241 4 129 8 272 8 318 l1 82 119 0 c140 0 131 -11 131
153 l0 108 356 -2 357 -2 -7 -133z m1166 129 l127 -6 3 -125 3 -125 91 2 c50
1 112 4 138 7 l46 4 0 -92 c0 -120 17 -384 35 -563 8 -77 22 -223 30 -325 9
-102 24 -259 35 -350 10 -91 22 -204 26 -252 l6 -88 -68 -1 c-38 0 -116 -1
-172 0 -78 0 -110 -4 -128 -15 -19 -13 -25 -14 -28 -3 -6 16 -32 253 -42 375
l-6 82 -47 5 c-25 4 -115 6 -200 7 l-154 0 6 -37 c10 -59 10 -414 0 -424 -4
-4 -37 -4 -73 1 -91 13 -244 12 -275 -2 -14 -6 -28 -8 -31 -5 -4 4 -10 172
-15 374 -9 436 -27 1080 -33 1211 l-4 92 140 0 141 0 -7 63 c-4 34 -10 92 -13
130 l-6 67 174 0 c96 0 231 -3 301 -7z m1535 -7 c1 -1 6 -56 10 -121 l8 -120
118 -3 c81 -2 119 -6 122 -15 3 -7 18 -133 35 -282 16 -148 33 -286 36 -307
l6 -36 -86 -7 c-47 -4 -99 -5 -116 -3 -31 5 -37 -1 -20 -18 10 -10 50 -227 50
-274 0 -38 14 -46 94 -53 38 -4 74 -11 79 -16 8 -8 27 -177 65 -565 6 -52 5
-79 -2 -82 -6 -2 -84 -3 -174 -2 -89 2 -162 0 -162 -3 0 -11 -33 -20 -41 -12
-16 16 -59 305 -74 492 -20 240 -25 267 -51 263 -10 -2 -22 -8 -25 -14 -4 -6
-61 -11 -133 -11 -112 -2 -129 0 -137 16 -6 9 -14 17 -20 17 -10 0 -7 -80 16
-405 8 -115 15 -243 15 -284 l0 -73 -37 7 c-21 5 -99 9 -173 10 -103 1 -139
-2 -152 -13 -9 -8 -21 -11 -26 -8 -5 3 -12 45 -16 93 -3 48 -8 99 -11 113 -8
47 -65 732 -90 1100 -3 41 -14 192 -25 335 -11 143 -20 267 -20 276 0 14 48
15 468 11 257 -2 468 -5 469 -6z m-5597 -362 c0 -24 -1 -24 -112 -26 -128 -2
-172 0 -208 8 -45 10 2 31 77 33 37 1 68 3 70 4 1 1 40 3 87 3 84 2 86 2 86
-22z m2620 15 c5 -6 28 -11 54 -11 25 1 46 -3 46 -8 0 -6 -67 -9 -172 -8 -111
1 -155 4 -123 8 l50 7 -40 3 -40 3 35 6 c70 13 183 13 190 0z m-2989 -66 c3
-53 -3 -127 -12 -148 -5 -13 -8 16 -7 78 1 53 5 97 10 97 4 0 9 -12 9 -27z
m-34 -350 c-3 -10 -5 -2 -5 17 0 19 2 27 5 18 2 -10 2 -26 0 -35z m-10 -60
c-3 -10 -5 -4 -5 12 0 17 2 24 5 18 2 -7 2 -21 0 -30z m-20 -110 c-3 -10 -5
-4 -5 12 0 17 2 24 5 18 2 -7 2 -21 0 -30z m2578 7 c-3 -5 -36 -9 -73 -8 l-67
2 70 6 c39 4 71 7 73 8 2 1 0 -2 -3 -8z m3959 -166 c9 -3 16 -15 16 -25 0 -14
7 -19 25 -19 30 0 31 -10 5 -40 -11 -13 -20 -29 -20 -36 0 -8 -6 -11 -16 -7
-9 3 -11 8 -6 12 6 3 -19 6 -53 6 -75 0 -91 11 -78 51 7 21 21 32 59 45 27 10
50 18 51 18 1 1 8 -2 17 -5z m23 -231 c-3 -10 -5 -2 -5 17 0 19 2 27 5 18 2
-10 2 -26 0 -35z m31 -233 c0 -47 -16 41 -22 120 l-5 75 14 -85 c7 -47 13 -96
13 -110z m9 -82 c-3 -8 -6 -5 -6 6 -1 11 2 17 5 13 3 -3 4 -12 1 -19z m11 -79
c-3 -8 -7 -3 -11 10 -4 17 -3 21 5 13 5 -5 8 -16 6 -23z m-2151 -104 c3 -2 6
-165 4 -241 -1 -43 -4 -53 -21 -57 -16 -4 -20 -14 -21 -54 l0 -48 -16 50 c-8
27 -23 61 -33 75 -14 20 -18 51 -22 157 l-4 131 56 -5 c30 -3 56 -7 57 -8z
m1353 -17 c0 6 6 12 13 12 14 0 31 -62 43 -157 6 -51 6 -53 -17 -53 -29 0 -54
-48 -45 -85 3 -13 2 -27 -4 -30 -7 -4 -10 52 -10 162 0 112 4 163 10 153 6
-10 10 -11 10 -2z m-3347 -206 c9 -10 23 -42 30 -72 13 -48 18 -56 43 -60 27
-5 25 -7 -16 -14 -25 -4 -52 -8 -60 -8 -8 -1 -23 -10 -34 -20 -11 -10 -26 -18
-33 -18 -19 0 -16 -28 5 -33 9 -3 -20 -5 -65 -6 -76 -1 -83 -3 -83 -21 0 -19
-7 -20 -235 -20 -219 0 -235 1 -235 18 0 10 9 24 20 32 24 17 27 74 6 95 -7 8
-33 15 -57 18 -24 2 90 4 253 5 l297 2 7 38 c13 70 23 78 105 81 23 1 42 -5
52 -17z m1076 -8 c-7 -9 -8 -14 -1 -14 5 0 8 -9 5 -20 -4 -14 -14 -20 -32 -20
-32 0 -51 -16 -52 -44 0 -12 -3 -15 -6 -8 -6 15 14 102 28 118 5 6 22 9 39 6
25 -3 28 -7 19 -18z m-2960 -98 c-2 -2 -184 -7 -404 -10 -220 -4 -418 -9 -440
-13 -22 -3 -36 -2 -32 3 4 5 61 11 125 15 133 7 758 11 751 5z m3439 -3 c-49
-2 -127 -2 -175 0 -49 1 -9 3 87 3 96 0 136 -2 88 -3z m1105 0 c-62 -2 -165
-2 -230 0 -65 1 -14 3 112 3 127 0 180 -2 118 -3z m-2226 -19 c-7 -7 -307 -7
-315 0 -3 4 68 6 158 6 90 0 161 -3 157 -6z m521 -1 c-16 -2 -40 -2 -55 0 -16
2 -3 4 27 4 30 0 43 -2 28 -4z m-685 -20 c-7 -2 -19 -2 -25 0 -7 3 -2 5 12 5
14 0 19 -2 13 -5z m-1928 -93 c3 -5 -1 -10 -9 -10 -9 0 -16 5 -16 10 0 6 4 10
9 10 6 0 13 -4 16 -10z m1840 -35 c6 -2 -71 -3 -170 -2 -99 1 -160 4 -135 7
45 5 286 1 305 -5z m488 -12 c-7 -2 -19 -2 -25 0 -7 3 -2 5 12 5 14 0 19 -2
13 -5z"/>
<path d="M4375 8270 c3 -5 8 -10 11 -10 2 0 4 5 4 10 0 6 -5 10 -11 10 -5 0
-7 -4 -4 -10z"/>
<path d="M5168 7733 c7 -3 16 -2 19 1 4 3 -2 6 -13 5 -11 0 -14 -3 -6 -6z"/>
<path d="M5312 7580 c0 -14 2 -19 5 -12 2 6 2 18 0 25 -3 6 -5 1 -5 -13z"/>
<path d="M5848 6923 c7 -3 16 -2 19 1 4 3 -2 6 -13 5 -11 0 -14 -3 -6 -6z"/>
<path d="M6035 6870 c27 -12 43 -12 25 0 -8 5 -22 9 -30 9 -10 0 -8 -3 5 -9z"/>
<path d="M6145 6831 c22 -11 47 -20 55 -20 17 0 -34 23 -71 33 -13 3 -6 -3 16
-13z"/>
<path d="M6349 6750 c35 -17 69 -29 75 -27 6 2 -14 13 -44 24 -90 35 -99 35
-31 3z"/>
<path d="M6530 6671 c32 -23 214 -112 200 -98 -19 19 -156 93 -190 102 -19 5
-22 4 -10 -4z"/>
<path d="M5295 6431 c-2 -5 6 -12 20 -15 14 -4 25 -11 25 -16 0 -6 10 -10 23
-9 21 0 21 1 2 10 -13 6 8 7 64 4 47 -3 90 -10 95 -14 6 -5 22 -9 36 -9 14 0
66 -8 115 -17 50 -9 106 -19 125 -22 19 -3 39 -12 43 -20 4 -7 18 -13 30 -12
21 0 21 1 2 10 -16 7 -14 8 10 4 17 -4 57 -10 90 -16 162 -25 646 -193 630
-219 -3 -5 0 -12 6 -16 8 -4 9 -3 5 4 -5 8 1 12 16 12 19 0 20 -2 8 -11 -12
-8 -12 -9 5 -8 28 4 68 -11 82 -30 12 -14 12 -14 7 1 -12 35 -90 73 -344 168
-212 79 -587 165 -874 200 -88 11 -173 22 -188 25 -15 2 -30 0 -33 -4z"/>
<path d="M5030 6394 c-8 -1 -67 -12 -130 -24 -125 -22 -267 -59 -235 -59 11 0
40 4 65 10 25 6 92 19 150 30 199 35 262 51 194 48 -16 -1 -36 -3 -44 -5z"/>
<path d="M5428 6383 c7 -3 16 -2 19 1 4 3 -2 6 -13 5 -11 0 -14 -3 -6 -6z"/>
<path d="M4520 6290 c-89 -20 -203 -57 -130 -43 19 4 55 7 80 8 60 3 62 3 55
15 -3 6 4 10 17 11 30 1 109 27 83 27 -11 0 -58 -8 -105 -18z"/>
<path d="M3996 6095 c-25 -19 -9 -19 24 0 14 8 19 14 10 14 -8 0 -24 -6 -34
-14z"/>
<path d="M4800 5925 c42 -8 127 -32 189 -55 63 -22 116 -38 119 -36 5 6 -1 9
-150 60 -59 20 -135 38 -170 41 l-63 5 75 -15z"/>
<path d="M4140 5110 c0 -20 -3 -65 -6 -99 l-7 -61 97 0 96 0 -2 103 -2 102 -3
-97 -4 -98 -40 0 c-35 0 -40 2 -34 19 3 11 1 22 -5 26 -15 9 -13 112 3 118 20
7 5 14 -45 19 l-48 6 0 -38z m53 13 c-7 -2 -19 -2 -25 0 -7 3 -2 5 12 5 14 0
19 -2 13 -5z"/>
<path d="M4795 4877 c-3 -6 -4 -172 -3 -367 l3 -355 5 368 c3 202 4 367 2 367
-1 0 -5 -6 -7 -13z"/>
<path d="M5118 4823 c12 -2 30 -2 40 0 9 3 -1 5 -23 4 -22 0 -30 -2 -17 -4z"/>
<path d="M4521 4593 l-1 -53 -105 0 -105 0 0 -49 c0 -26 -3 -75 -6 -107 l-6
-59 105 3 105 3 7 -73 c4 -40 5 -89 3 -107 l-3 -35 -109 3 -109 3 7 -39 c7
-37 63 -103 88 -103 6 0 8 -3 5 -7 -4 -3 1 -12 12 -19 14 -10 27 -11 56 -3 21
6 46 8 56 6 11 -3 26 1 33 9 8 8 24 14 36 14 25 0 50 22 50 44 0 9 8 16 20 16
17 0 20 -7 21 -42 l1 -43 9 32 c5 18 8 101 7 185 l-3 153 -92 3 -93 3 0 26 c0
15 5 77 11 139 6 62 9 120 6 130 -3 11 -5 -5 -6 -33z m160 -306 c-10 -9 -11
-8 -5 6 3 10 9 15 12 12 3 -3 0 -11 -7 -18z m-171 -197 c0 -5 -4 -10 -10 -10
-5 0 -10 5 -10 10 0 6 5 10 10 10 6 0 10 -4 10 -10z"/>
<path d="M4794 4030 c0 -63 1 -89 3 -57 2 31 2 83 0 115 -2 31 -3 5 -3 -58z"/>
<path d="M4681 3754 c0 -11 3 -14 6 -6 3 7 2 16 -1 19 -3 4 -6 -2 -5 -13z"/>
<path d="M4791 3723 c0 -23 -6 -45 -12 -49 -23 -14 -89 -6 -124 15 -40 23 -69
28 -63 9 3 -7 18 -15 35 -19 17 -3 41 -14 54 -23 l24 -17 -30 7 c-28 7 -27 5
18 -33 26 -22 65 -49 86 -60 l39 -21 -4 41 c-14 140 -21 190 -23 150z"/>
<path d="M5827 3660 c-5 -19 -10 -51 -13 -70 l-6 -35 26 35 c14 19 30 40 36
47 15 18 12 22 -9 16 -14 -4 -20 1 -23 19 -3 19 -5 17 -11 -12z"/>
<path d="M5953 4353 c9 -2 25 -2 35 0 9 3 1 5 -18 5 -19 0 -27 -2 -17 -5z"/>
<path d="M3066 1938 c-15 -95 -17 -132 -8 -123 5 6 12 43 16 83 6 73 1 98 -8
40z"/>
<path d="M2213 1733 c9 -2 23 -2 30 0 6 3 -1 5 -18 5 -16 0 -22 -2 -12 -5z"/>
<path d="M3760 2913 c0 -49 -2 -119 -5 -158 -3 -54 -2 -62 5 -35 10 38 4 -310
-6 -367 -9 -47 -24 -41 -24 9 0 61 -6 43 -14 -39 l-6 -73 174 0 174 0 6 178
c4 97 11 244 16 325 12 184 13 247 1 247 -4 0 -7 -13 -5 -29 3 -25 -1 -29 -28
-35 -51 -10 -238 -7 -238 4 0 6 13 10 29 10 17 0 33 4 36 10 4 6 -1 7 -12 3
-15 -6 -16 -4 -5 9 11 13 8 16 -19 22 -79 16 -79 16 -79 -81z"/>
<path d="M3743 2630 c0 -30 2 -43 4 -27 2 15 2 39 0 55 -2 15 -4 2 -4 -28z"/>
<path d="M3730 2493 c-3 -29 -1 -48 3 -44 5 5 7 28 5 52 l-3 44 -5 -52z"/>
<path d="M4121 1474 c0 -11 3 -14 6 -6 3 7 2 16 -1 19 -3 4 -6 -2 -5 -13z"/>
<path d="M5353 1743 c32 -2 81 -2 110 0 29 2 3 3 -58 3 -60 0 -84 -1 -52 -3z"/>
<path d="M6507 2900 c2 -52 10 -216 18 -363 9 -148 13 -273 9 -278 -3 -5 70
-9 176 -9 100 0 179 3 177 8 -9 14 -23 219 -32 457 -3 83 -8 179 -11 215 l-6
65 -167 0 -168 0 4 -95z m265 62 c32 -2 55 -8 52 -13 -7 -11 -294 -12 -294 -1
0 4 17 6 38 4 29 -3 34 -1 22 8 -13 11 -13 11 0 7 9 -2 33 -1 55 3 22 4 47 5
55 2 8 -2 41 -7 72 -10z"/>
<path d="M7228 1473 c17 -2 47 -2 65 0 17 2 3 4 -33 4 -36 0 -50 -2 -32 -4z"/>
<path d="M7850 2985 c0 -5 9 -103 21 -217 l22 -206 190 -1 189 -1 -6 33 c-14
65 -35 264 -36 332 l0 70 -190 0 c-120 0 -190 -4 -190 -10z m138 -42 c-10 -2
-26 -2 -35 0 -10 3 -2 5 17 5 19 0 27 -2 18 -5z"/>
<path d="M8025 2150 c3 -5 19 -10 36 -10 16 0 29 5 29 10 0 6 -16 10 -36 10
-21 0 -33 -4 -29 -10z"/>
<path d="M8363 2098 c-1 -29 -1 -30 6 -8 6 22 14 26 61 31 l55 6 -60 1 -61 2
-1 -32z"/>
<path d="M8372 2030 c0 -19 2 -27 5 -17 2 9 2 25 0 35 -3 9 -5 1 -5 -18z"/>
<path d="M8403 1765 c0 -22 2 -30 4 -17 2 12 2 30 0 40 -3 9 -5 -1 -4 -23z"/>
<path d="M8437 1505 c6 -40 10 -52 17 -44 2 2 -3 22 -10 44 l-13 40 6 -40z"/>
<path d="M7921 1514 c0 -11 3 -14 6 -6 3 7 2 16 -1 19 -3 4 -6 -2 -5 -13z"/>
<path d="M8141 1444 c0 -11 3 -14 6 -6 3 7 2 16 -1 19 -3 4 -6 -2 -5 -13z"/>
<path d="M5981 9044 c0 -11 3 -14 6 -6 3 7 2 16 -1 19 -3 4 -6 -2 -5 -13z"/>
<path d="M3908 8863 c7 -3 16 -2 19 1 4 3 -2 6 -13 5 -11 0 -14 -3 -6 -6z"/>
<path d="M6714 8838 l-19 -23 23 19 c21 18 27 26 19 26 -2 0 -12 -10 -23 -22z"/>
<path d="M3757 8819 c7 -7 15 -10 18 -7 3 3 -2 9 -12 12 -14 6 -15 5 -6 -5z"/>
<path d="M3942 8780 c0 -14 2 -19 5 -12 2 6 2 18 0 25 -3 6 -5 1 -5 -13z"/>
<path d="M3952 8705 c0 -16 2 -22 5 -12 2 9 2 23 0 30 -3 6 -5 -1 -5 -18z"/>
<path d="M4238 8683 c7 -3 16 -2 19 1 4 3 -2 6 -13 5 -11 0 -14 -3 -6 -6z"/>
<path d="M4478 8683 c7 -3 16 -2 19 1 4 3 -2 6 -13 5 -11 0 -14 -3 -6 -6z"/>
<path d="M6048 8663 c7 -3 16 -2 19 1 4 3 -2 6 -13 5 -11 0 -14 -3 -6 -6z"/>
<path d="M6445 8660 c3 -5 8 -10 11 -10 2 0 4 5 4 10 0 6 -5 10 -11 10 -5 0
-7 -4 -4 -10z"/>
<path d="M3962 8640 c0 -14 2 -19 5 -12 2 6 2 18 0 25 -3 6 -5 1 -5 -13z"/>
<path d="M6525 8640 c4 -6 11 -8 16 -5 14 9 11 15 -7 15 -8 0 -12 -5 -9 -10z"/>
<path d="M6565 8630 c3 -5 8 -10 11 -10 2 0 4 5 4 10 0 6 -5 10 -11 10 -5 0
-7 -4 -4 -10z"/>
<path d="M6598 8628 c9 -9 15 -9 24 0 9 9 7 12 -12 12 -19 0 -21 -3 -12 -12z"/>
<path d="M3127 8615 c-4 -11 -11 -30 -17 -42 -14 -34 -3 -28 15 8 9 17 14 36
12 42 -2 6 -6 3 -10 -8z"/>
<path d="M3200 8580 c0 -11 4 -20 9 -20 5 0 7 9 4 20 -3 11 -7 20 -9 20 -2 0
-4 -9 -4 -20z"/>
<path d="M3073 8493 c0 -9 4 -10 14 -2 7 6 13 12 13 14 0 1 -6 2 -13 2 -8 0
-14 -6 -14 -14z"/>
<path d="M7555 8470 c16 -16 33 -30 39 -30 5 0 -3 14 -19 30 -16 17 -33 30
-39 30 -5 0 3 -13 19 -30z"/>
<path d="M7310 8472 c0 -10 22 -32 32 -32 15 0 8 15 -12 28 -11 7 -20 9 -20 4z"/>
<path d="M3014 8428 l-29 -33 33 29 c30 28 37 36 29 36 -2 0 -16 -15 -33 -32z"/>
<path d="M7625 8400 c10 -11 20 -20 23 -20 3 0 -3 9 -13 20 -10 11 -20 20 -23
20 -3 0 3 -9 13 -20z"/>
<path d="M2829 8243 l-24 -28 28 24 c25 23 32 31 24 31 -2 0 -14 -12 -28 -27z"/>
<path d="M7816 8198 c3 -5 10 -6 15 -3 13 9 11 12 -6 12 -8 0 -12 -4 -9 -9z"/>
<path d="M4680 8092 c0 -16 -190 -210 -258 -264 -99 -79 -102 -81 -102 -98 -1
-8 -7 -32 -14 -53 -8 -21 -11 -37 -7 -35 3 2 74 38 158 80 83 42 177 82 208
89 42 9 54 16 51 28 -3 9 -8 71 -11 139 -4 67 -11 122 -16 122 -5 0 -9 -4 -9
-8z"/>
<path d="M5896 8023 c-3 -32 -8 -88 -12 -124 l-6 -67 58 -17 c33 -9 104 -37
159 -62 172 -78 184 -83 179 -68 -3 7 2 25 11 38 l16 25 -73 42 c-53 31 -106
76 -194 166 -67 68 -124 124 -127 124 -3 0 -8 -26 -11 -57z"/>
<path d="M2432 8034 c-7 -8 -8 -14 -3 -14 10 0 25 19 20 25 -2 1 -10 -3 -17
-11z"/>
<path d="M2460 8021 c0 -5 6 -14 14 -20 10 -9 15 -8 19 3 4 11 1 13 -10 9 -11
-4 -14 -2 -9 5 4 7 2 12 -3 12 -6 0 -11 -4 -11 -9z"/>
<path d="M2386 8003 c-6 -14 -5 -15 5 -6 7 7 10 15 7 18 -3 3 -9 -2 -12 -12z"/>
<path d="M2520 7935 c19 -19 36 -35 39 -35 3 0 -10 16 -29 35 -19 19 -36 35
-39 35 -3 0 10 -16 29 -35z"/>
<path d="M8003 7932 c-7 -4 -9 -13 -4 -21 6 -10 10 -9 15 5 8 20 4 25 -11 16z"/>
<path d="M8462 7240 c0 -14 2 -19 5 -12 2 6 2 18 0 25 -3 6 -5 1 -5 -13z"/>
<path d="M1893 7195 c0 -27 2 -38 4 -22 2 15 2 37 0 50 -2 12 -4 0 -4 -28z"/>
<path d="M2112 7160 c0 -14 2 -19 5 -12 2 6 2 18 0 25 -3 6 -5 1 -5 -13z"/>
<path d="M8722 7155 c0 -16 2 -22 5 -12 2 9 2 23 0 30 -3 6 -5 -1 -5 -18z"/>
<path d="M8746 7053 c-6 -14 -5 -15 5 -6 7 7 10 15 7 18 -3 3 -9 -2 -12 -12z"/>
<path d="M3615 6842 c-86 -92 -98 -132 -40 -132 25 0 37 5 41 18 3 9 17 47 31
83 14 37 24 71 22 75 -2 5 -26 -15 -54 -44z"/>
<path d="M6970 6783 c16 -68 16 -68 53 -71 33 -3 37 -1 37 20 0 15 -18 41 -48
71 -26 26 -50 47 -53 47 -3 0 2 -30 11 -67z"/>
<path d="M1781 6614 c0 -11 3 -14 6 -6 3 7 2 16 -1 19 -3 4 -6 -2 -5 -13z"/>
<path d="M8812 6540 c0 -19 2 -27 5 -17 2 9 2 25 0 35 -3 9 -5 1 -5 -18z"/>
<path d="M1773 6405 c-3 -9 -3 -18 -1 -21 3 -3 8 4 11 16 6 23 -1 27 -10 5z"/>
<path d="M1780 6330 c0 -5 7 -10 16 -10 8 0 12 5 9 10 -3 6 -10 10 -16 10 -5
0 -9 -4 -9 -10z"/>
<path d="M3313 6225 c-7 -18 -14 -127 -18 -276 -5 -218 -4 -247 9 -252 12 -5
16 -20 16 -55 0 -74 25 -196 57 -282 3 -8 14 62 24 157 11 109 24 183 34 203
l17 32 -40 42 c-71 73 -76 90 -82 286 -4 148 -7 170 -17 145z"/>
<path d="M7260 6235 c-2 -170 -9 -298 -19 -327 -6 -20 -27 -59 -46 -87 -40
-58 -41 -63 -19 -96 15 -23 31 -152 34 -285 l1 -45 15 39 c8 22 19 83 25 135
8 73 15 100 30 113 17 15 19 31 18 195 0 204 -11 339 -28 356 -6 6 -11 7 -11
2z"/>
<path d="M1661 6014 c0 -11 3 -14 6 -6 3 7 2 16 -1 19 -3 4 -6 -2 -5 -13z"/>
<path d="M1652 5920 c0 -14 2 -19 5 -12 2 6 2 18 0 25 -3 6 -5 1 -5 -13z"/>
<path d="M8941 5864 c0 -11 3 -14 6 -6 3 7 2 16 -1 19 -3 4 -6 -2 -5 -13z"/>
<path d="M8942 5780 c0 -14 2 -19 5 -12 2 6 2 18 0 25 -3 6 -5 1 -5 -13z"/>
<path d="M1730 5379 c0 -5 5 -7 10 -4 6 3 10 8 10 11 0 2 -4 4 -10 4 -5 0 -10
-5 -10 -11z"/>
<path d="M1720 5310 c0 -5 5 -10 11 -10 5 0 7 5 4 10 -3 6 -8 10 -11 10 -2 0
-4 -4 -4 -10z"/>
<path d="M8888 5303 c6 -2 18 -2 25 0 6 3 1 5 -13 5 -14 0 -19 -2 -12 -5z"/>
<path d="M9005 5280 c3 -5 8 -10 11 -10 2 0 4 5 4 10 0 6 -5 10 -11 10 -5 0
-7 -4 -4 -10z"/>
<path d="M1730 4799 c0 -5 5 -7 10 -4 6 3 10 8 10 11 0 2 -4 4 -10 4 -5 0 -10
-5 -10 -11z"/>
<path d="M1750 4759 c0 -5 5 -7 10 -4 6 3 10 8 10 11 0 2 -4 4 -10 4 -5 0 -10
-5 -10 -11z"/>
<path d="M1790 4679 c0 -5 5 -7 10 -4 6 3 10 8 10 11 0 2 -4 4 -10 4 -5 0 -10
-5 -10 -11z"/>
<path d="M1840 4599 c0 -5 5 -7 10 -4 6 3 10 8 10 11 0 2 -4 4 -10 4 -5 0 -10
-5 -10 -11z"/>
<path d="M1876 4562 c-3 -5 1 -9 9 -9 8 0 12 4 9 9 -3 4 -7 8 -9 8 -2 0 -6 -4
-9 -8z"/>
<path d="M8229 3723 c-13 -16 -12 -17 4 -4 16 13 21 21 13 21 -2 0 -10 -8 -17
-17z"/>
<path d="M2218 3633 c7 -3 16 -2 19 1 4 3 -2 6 -13 5 -11 0 -14 -3 -6 -6z"/>
<path d="M8258 3633 c12 -2 32 -2 45 0 12 2 2 4 -23 4 -25 0 -35 -2 -22 -4z"/>
<path d="M8498 3613 c6 -2 18 -2 25 0 6 3 1 5 -13 5 -14 0 -19 -2 -12 -5z"/>
<path d="M1973 3603 c9 -2 23 -2 30 0 6 3 -1 5 -18 5 -16 0 -22 -2 -12 -5z"/>
<path d="M8653 3603 c9 -2 23 -2 30 0 6 3 -1 5 -18 5 -16 0 -22 -2 -12 -5z"/>
<path d="M1833 3593 c9 -2 25 -2 35 0 9 3 1 5 -18 5 -19 0 -27 -2 -17 -5z"/>
<path d="M8758 3593 c12 -2 30 -2 40 0 9 3 -1 5 -23 4 -22 0 -30 -2 -17 -4z"/>
<path d="M8892 3540 c0 -14 2 -19 5 -12 2 6 2 18 0 25 -3 6 -5 1 -5 -13z"/>
<path d="M8902 3435 c0 -16 2 -22 5 -12 2 9 2 23 0 30 -3 6 -5 -1 -5 -18z"/>
<path d="M1681 3204 c0 -11 3 -14 6 -6 3 7 2 16 -1 19 -3 4 -6 -2 -5 -13z"/>
<path d="M8951 3054 c0 -11 3 -14 6 -6 3 7 2 16 -1 19 -3 4 -6 -2 -5 -13z"/>
<path d="M1640 3008 c0 -9 5 -20 10 -23 13 -8 13 5 0 25 -8 13 -10 13 -10 -2z"/>
<path d="M1631 2854 c0 -11 3 -14 6 -6 3 7 2 16 -1 19 -3 4 -6 -2 -5 -13z"/>
<path d="M1616 2775 c-3 -8 -1 -15 4 -15 6 0 10 7 10 15 0 8 -2 15 -4 15 -2 0
-6 -7 -10 -15z"/>
<path d="M8991 2714 c0 -11 3 -14 6 -6 3 7 2 16 -1 19 -3 4 -6 -2 -5 -13z"/>
<path d="M1600 2715 c0 -5 5 -17 10 -25 5 -8 10 -10 10 -5 0 6 -5 17 -10 25
-5 8 -10 11 -10 5z"/>
<path d="M9001 2624 c0 -11 3 -14 6 -6 3 7 2 16 -1 19 -3 4 -6 -2 -5 -13z"/>
<path d="M1601 2584 c0 -11 3 -14 6 -6 3 7 2 16 -1 19 -3 4 -6 -2 -5 -13z"/>
<path d="M9013 2500 c0 -25 2 -35 4 -22 2 12 2 32 0 45 -2 12 -4 2 -4 -23z"/>
<path d="M1592 2500 c0 -14 2 -19 5 -12 2 6 2 18 0 25 -3 6 -5 1 -5 -13z"/>
<path d="M9023 2355 c0 -22 2 -30 4 -17 2 12 2 30 0 40 -3 9 -5 -1 -4 -23z"/>
<path d="M1571 2314 c0 -11 3 -14 6 -6 3 7 2 16 -1 19 -3 4 -6 -2 -5 -13z"/>
<path d="M9042 2065 c0 -16 2 -22 5 -12 2 9 2 23 0 30 -3 6 -5 -1 -5 -18z"/>
<path d="M1541 2054 c0 -11 3 -14 6 -6 3 7 2 16 -1 19 -3 4 -6 -2 -5 -13z"/>
<path d="M9052 1990 c0 -14 2 -19 5 -12 2 6 2 18 0 25 -3 6 -5 1 -5 -13z"/>
<path d="M1531 1954 c0 -11 3 -14 6 -6 3 7 2 16 -1 19 -3 4 -6 -2 -5 -13z"/>
<path d="M9062 1915 c0 -16 2 -22 5 -12 2 9 2 23 0 30 -3 6 -5 -1 -5 -18z"/>
<path d="M1512 1780 c0 -14 2 -19 5 -12 2 6 2 18 0 25 -3 6 -5 1 -5 -13z"/>
<path d="M1502 1700 c0 -14 2 -19 5 -12 2 6 2 18 0 25 -3 6 -5 1 -5 -13z"/>
<path d="M9152 1660 c0 -14 2 -19 5 -12 2 6 2 18 0 25 -3 6 -5 1 -5 -13z"/>
<path d="M1492 1620 c0 -14 2 -19 5 -12 2 6 2 18 0 25 -3 6 -5 1 -5 -13z"/>
<path d="M1482 1525 c0 -16 2 -22 5 -12 2 9 2 23 0 30 -3 6 -5 -1 -5 -18z"/>
<path d="M9192 1340 c0 -14 2 -19 5 -12 2 6 2 18 0 25 -3 6 -5 1 -5 -13z"/>
<path d="M9180 1110 c0 -5 5 -10 10 -10 6 0 10 5 10 10 0 6 -4 10 -10 10 -5 0
-10 -4 -10 -10z"/>
<path d="M3846 1054 c-4 -31 -5 -59 -2 -61 2 -3 8 21 11 52 4 31 5 58 3 61 -3
2 -8 -21 -12 -52z"/>
<path d="M9192 1020 c0 -14 2 -19 5 -12 2 6 2 18 0 25 -3 6 -5 1 -5 -13z"/>
<path d="M6700 970 c0 -5 7 -10 16 -10 8 0 12 5 9 10 -3 6 -10 10 -16 10 -5 0
-9 -4 -9 -10z"/>
</g>
</svg>
